<svg width="20" height="20" viewBox="0 0 20 20" fill="none" xmlns="http://www.w3.org/2000/svg">
<path d="M13.53 5.22C13.3894 5.07955 13.1988 5.00066 13 5.00066C12.8013 5.00066 12.6107 5.07955 12.47 5.22L8.22005 9.47C8.0796 9.61062 8.00071 9.80125 8.00071 10C8.00071 10.1987 8.0796 10.3894 8.22005 10.53L12.47 14.78C12.6122 14.9125 12.8003 14.9846 12.9946 14.9812C13.1889 14.9777 13.3743 14.899 13.5117 14.7616C13.6491 14.6242 13.7278 14.4388 13.7312 14.2445C13.7347 14.0502 13.6625 13.8622 13.53 13.72L9.81005 10L13.53 6.28C13.6705 6.13937 13.7494 5.94875 13.7494 5.75C13.7494 5.55125 13.6705 5.36062 13.53 5.22Z" fill="black"/>
</svg>
