<svg width="94" height="48" viewBox="0 0 94 48" fill="none" xmlns="http://www.w3.org/2000/svg">
<path d="M30.067 13.78C27.8113 10.7996 24.367 8.74299 20.6447 8.17256C18.7703 7.98417 16.8853 7.98417 15.0057 8.01556C14.5715 7.99986 14.2883 8.36881 13.997 8.62523C12.4668 10.156 10.9207 11.6736 9.37987 13.1938C8.73654 13.827 8.13025 14.5126 7.38104 15.0307C7.65108 15.1301 7.92379 15.2401 8.22292 15.2112C10.4971 15.2139 12.7739 15.2034 15.0481 15.2087C16.8589 15.2296 18.6935 15.0857 20.4753 15.4886L20.6421 15.5462C23.4034 16.428 25.4366 19.0341 25.6855 21.881C26.0402 25.1832 23.7502 28.4147 20.6103 29.4692C18.6221 29.9794 16.5571 29.7178 14.5318 29.7805C13.3457 29.778 12.157 29.7989 10.971 29.7518C10.8995 27.9411 10.9948 26.1278 10.9419 24.3145C10.9472 23.71 10.873 23.0872 11.0372 22.4959C12.2073 22.4017 13.3855 22.4881 14.5583 22.4436C12.2735 20.0939 7.26987 15.3813 7.15602 15.3447C4.82362 17.7572 2.3509 20.0337 0 22.4331C1.20989 22.475 2.4224 22.4462 3.63229 22.4698C3.71169 27.3078 3.64287 32.1486 3.66667 36.9867C8.93776 36.9422 14.2141 37.0888 19.4799 36.903C19.8691 36.9082 20.2556 36.8611 20.6447 36.8324C22.9162 36.4058 25.1268 35.5633 26.9986 34.2C30.3026 31.8555 32.5079 28.0798 32.9183 24.0816C33.3048 20.4628 32.3147 16.6844 30.067 13.78Z" fill="#0284C7"/>
<path d="M30.7339 17.8403C31.0727 18.7326 31.328 19.681 31.5 20.6854L28.2107 23C28.1549 21.877 28.0004 20.8384 27.7472 19.8843L30.7339 17.8403Z" fill="#0EA5E9"/>
<path d="M30.1431 16.5042C30.1148 16.4486 30.0861 16.3932 30.057 16.338C28.9431 14.1768 27.3228 12.5217 25.1962 11.3727C24.9612 11.2411 24.7213 11.1169 24.4764 11L22.5 13.5127C23.67 14.009 24.6701 14.7183 25.5 15.6404C26.2377 16.4486 26.826 17.3844 27.2652 18.4479L30.1431 16.5042Z" fill="#0EA5E9"/>
<path d="M37.3244 16.232H45.6444C47.671 16.232 49.271 16.3707 50.4444 16.648C51.639 16.9253 52.503 17.416 53.0364 18.12C53.591 18.8027 53.8684 19.7627 53.8684 21V24.936C53.8684 26.3013 53.5697 27.368 52.9724 28.136C52.3964 28.904 51.4684 29.448 50.1884 29.768C48.9297 30.088 47.223 30.248 45.0684 30.248H42.3164V37H37.3244V16.232ZM45.4844 26.824C46.7857 26.824 47.703 26.6747 48.2364 26.376C48.7697 26.056 49.0364 25.5227 49.0364 24.776V21.448C49.0364 20.7653 48.7804 20.3173 48.2684 20.104C47.7777 19.8907 46.8284 19.784 45.4204 19.784H42.3164V26.824H45.4844ZM61.2909 16.232H67.3709L74.8589 37H69.8029L67.9469 31.528H60.3629L58.5389 37H53.6109L61.2909 16.232ZM66.8589 28.2L64.2349 20.392H64.1069L61.4829 28.2H66.8589ZM81.0979 28.68L73.5779 16.232H79.2419L83.6259 24.36L87.9779 16.232H93.6739L86.0899 28.616V37H81.0979V28.68Z" fill="#475569"/>
</svg>
